<svg width="220" height="200" viewBox="0 0 220 200" fill="none" xmlns="http://www.w3.org/2000/svg">
<circle cx="113" cy="100" r="97.5" stroke="black" stroke-width="5"/>
<path d="M82.8763 119.563C83.7483 119.563 84.4191 119.965 84.8886 120.77C85.4252 121.575 85.6935 122.682 85.6935 124.09C85.6935 126.706 85.0563 128.786 83.7818 130.329C80.0255 134.823 76.3698 137.975 72.8148 139.786C69.3268 141.598 65.1009 142.503 60.1372 142.503C56.6492 142.503 53.4295 142.067 50.4782 141.195C47.5268 140.323 43.9382 139.015 39.7123 137.271C35.8889 135.594 32.1997 134.219 28.6446 133.146C25.2237 139.384 20.0923 142.503 13.2505 142.503C9.49415 142.503 6.50923 141.665 4.29569 139.988C2.01508 138.244 0.874769 136.03 0.874769 133.347C0.874769 130.06 2.45108 127.344 5.60369 125.197C8.75631 122.984 12.9486 121.877 18.1806 121.877H19.4886L21.2997 92.5978C21.7022 85.8902 22.9095 80.3563 24.9218 75.9963C26.9342 71.6363 29.7178 67.9135 33.2729 64.828C36.3585 62.1449 39.88 60.1326 43.8375 58.7911C47.7951 57.3825 51.9874 56.6782 56.4145 56.6782C63.6588 56.6782 69.2262 58.5563 73.1166 62.3126C77.0071 66.0689 78.9523 70.9655 78.9523 77.0025C78.9523 81.0942 78.2145 84.4145 76.7388 86.9634C75.2631 89.4452 73.2172 90.6862 70.6012 90.6862C68.7231 90.6862 67.2474 90.2502 66.1742 89.3782C65.1009 88.4391 64.5643 87.1311 64.5643 85.4542C64.5643 84.8505 64.6985 83.7437 64.9668 82.1338C65.3692 80.2557 65.5705 78.5788 65.5705 77.1031C65.5705 74.2858 64.732 72.0723 63.0551 70.4625C61.4452 68.7855 58.9634 67.9471 55.6095 67.9471C49.7068 67.9471 45.1455 69.8923 41.9258 73.7828C38.7062 77.6062 36.6603 83.6431 35.7883 91.8935L33.4742 114.733C33.1388 117.953 32.7028 120.737 32.1662 123.084C36.4591 123.822 41.8252 124.996 48.2646 126.606C52.0209 127.545 54.9052 128.216 56.9175 128.618C58.9298 129.021 60.7074 129.222 62.2502 129.222C66.1406 129.222 69.4609 128.585 72.2111 127.31C75.0283 125.969 77.6778 123.856 80.1597 120.971C80.9646 120.032 81.8702 119.563 82.8763 119.563ZM136.9 111.111C137.772 111.111 138.442 111.547 138.912 112.419C139.382 113.291 139.616 114.398 139.616 115.739C139.616 118.959 138.644 120.871 136.698 121.474C132.674 122.883 128.247 123.688 123.417 123.889C122.143 129.524 119.627 134.051 115.871 137.472C112.115 140.826 107.855 142.503 103.093 142.503C99.0683 142.503 95.6138 141.53 92.7295 139.585C89.9123 137.64 87.7658 135.058 86.2902 131.838C84.8145 128.618 84.0766 125.13 84.0766 121.374C84.0766 116.276 85.0492 111.748 86.9945 107.791C88.9397 103.766 91.6228 100.647 95.0437 98.4335C98.4646 96.1529 102.254 95.0126 106.413 95.0126C111.511 95.0126 115.603 96.7902 118.688 100.345C121.841 103.833 123.686 108.16 124.222 113.325C127.375 113.123 131.131 112.453 135.491 111.312C136.028 111.178 136.497 111.111 136.9 111.111ZM103.898 131.838C106.044 131.838 107.889 130.966 109.432 129.222C111.042 127.478 112.115 124.962 112.651 121.676C110.572 120.267 108.962 118.422 107.822 116.142C106.749 113.861 106.212 111.446 106.212 108.898C106.212 107.824 106.313 106.751 106.514 105.678H106.011C103.328 105.678 101.081 106.986 99.2695 109.602C97.5255 112.151 96.6535 115.773 96.6535 120.468C96.6535 124.158 97.3578 126.975 98.7665 128.92C100.242 130.865 101.953 131.838 103.898 131.838ZM182.496 119.764C183.368 119.764 184.039 120.2 184.508 121.072C185.045 121.877 185.313 122.917 185.313 124.191C185.313 125.734 185.078 126.941 184.609 127.813C184.139 128.685 183.401 129.457 182.395 130.127C176.627 134.018 172.401 136.902 169.718 138.78L163.278 143.107C160.729 156.992 157.375 167.892 153.217 175.807C149.125 183.789 143.893 187.78 137.521 187.78C134.1 187.78 131.316 186.707 129.17 184.56C127.023 182.481 125.95 179.731 125.95 176.31C125.95 171.547 127.828 166.416 131.584 160.916C135.341 155.482 142.384 148.775 152.714 140.793L153.317 136.869C152.177 138.68 150.668 140.088 148.79 141.094C146.979 142.034 145.167 142.503 143.356 142.503C139.198 142.503 135.877 140.994 133.395 137.975C130.914 134.957 129.673 130.999 129.673 126.103C129.673 120.737 130.914 115.672 133.395 110.91C135.877 106.08 139.164 102.223 143.256 99.3391C147.415 96.3877 151.808 94.912 156.436 94.912C157.912 94.912 158.885 95.2138 159.354 95.8175C159.891 96.3542 160.327 97.3603 160.662 98.836C161.937 98.5677 163.412 98.4335 165.089 98.4335C166.766 98.4335 167.94 98.7018 168.611 99.2385C169.349 99.708 169.718 100.681 169.718 102.156C169.718 102.961 169.684 103.598 169.617 104.068C169.349 106.147 168.51 111.413 167.102 119.865C166.833 121.474 166.531 123.252 166.196 125.197C165.928 127.075 165.626 129.088 165.291 131.234C170.455 127.21 175.419 123.654 180.182 120.569C181.054 120.032 181.825 119.764 182.496 119.764ZM146.979 132.341C148.521 132.341 149.997 131.402 151.406 129.524C152.814 127.646 153.82 124.962 154.424 121.474L157.644 104.269C154.894 104.336 152.345 105.41 149.997 107.489C147.649 109.501 145.771 112.184 144.363 115.538C142.954 118.892 142.25 122.447 142.25 126.203C142.25 128.283 142.652 129.826 143.457 130.832C144.329 131.838 145.503 132.341 146.979 132.341ZM138.627 178.02C140.304 178.02 142.183 176.008 144.262 171.983C146.408 167.959 148.454 161.553 150.399 152.766C145.235 157.193 141.512 161.184 139.231 164.739C136.951 168.294 135.81 171.413 135.81 174.096C135.81 175.237 136.011 176.176 136.414 176.914C136.883 177.651 137.621 178.02 138.627 178.02ZM196.131 142.503C192.173 142.503 188.786 141.53 185.969 139.585C183.218 137.573 181.139 134.957 179.73 131.737C178.322 128.518 177.617 125.063 177.617 121.374C177.617 116.276 178.557 111.748 180.435 107.791C182.38 103.766 184.996 100.647 188.283 98.4335C191.569 96.1529 195.259 95.0126 199.35 95.0126C203.308 95.0126 206.695 96.0188 209.513 98.0311C212.33 99.9763 214.443 102.559 215.851 105.778C217.26 108.998 217.964 112.453 217.964 116.142C217.964 121.24 216.992 125.801 215.046 129.826C213.101 133.783 210.452 136.902 207.098 139.183C203.811 141.396 200.155 142.503 196.131 142.503ZM197.237 131.637C199.518 131.637 201.43 130.396 202.973 127.914C204.582 125.432 205.387 121.81 205.387 117.047C205.387 113.358 204.717 110.574 203.375 108.696C202.033 106.818 200.424 105.879 198.545 105.879C196.131 105.879 194.118 107.12 192.509 109.602C190.966 112.017 190.194 115.639 190.194 120.468C190.194 124.292 190.865 127.109 192.207 128.92C193.548 130.731 195.225 131.637 197.237 131.637Z" fill="black"/>
</svg>
